<?xml version="1.0" standalone="no"?><!DOCTYPE svg PUBLIC "-//W3C//DTD SVG 1.1//EN" "http://www.w3.org/Graphics/SVG/1.1/DTD/svg11.dtd"><svg t="1533377498103" class="icon" style="" viewBox="0 0 1024 1024" version="1.1" xmlns="http://www.w3.org/2000/svg" p-id="3538" xmlns:xlink="http://www.w3.org/1999/xlink" width="128" height="128"><defs><style type="text/css"></style></defs><path d="M967.168 416.768c-81.92-151.04-259.584-248.32-453.12-248.32-190.976 0-367.616 95.744-450.048 243.712l0.512 0.512c-2.56 4.608-4.608 9.728-4.608 15.872 0 16.896 13.824 30.72 30.72 30.72 13.312 0 24.576-8.192 28.672-19.968C192 312.32 346.624 230.4 514.048 230.4c171.008 0 327.68 84.992 398.848 216.064 5.12 9.728 15.36 16.384 27.136 16.384 16.896 0 30.72-13.824 30.72-30.72 0-6.144-1.536-10.752-3.584-15.36z" fill="#ffffff" p-id="3539"></path><path d="M817.152 526.336C745.984 424.96 630.784 364.032 508.416 364.032s-237.568 60.416-308.224 160.768c-3.584 5.12-5.632 11.264-5.632 17.408 0 16.896 13.824 30.72 30.72 30.72 10.24 0 19.456-5.12 25.088-13.312C309.76 476.16 406.016 425.472 508.416 425.472s199.168 50.688 258.56 135.68c5.632 7.68 14.848 13.312 25.088 13.312 16.896 0 30.72-13.824 30.72-30.72 0-6.656-2.048-12.8-5.632-17.408z" fill="#ffffff" p-id="3540"></path><path d="M688.128 654.336c-36.864-65.024-106.496-104.96-180.736-104.96-75.264 0-144.384 40.448-180.736 105.472-2.56 4.608-4.096 9.728-4.096 14.848 0 16.896 13.824 30.72 30.72 30.72 11.264 0 21.504-6.144 26.624-15.872 25.6-45.568 74.24-73.728 127.488-73.728 51.712 0 98.304 26.112 124.928 70.144 4.608 11.264 15.36 19.456 28.672 19.456 16.896 0 30.72-13.824 30.72-30.72 0-5.632-1.536-10.752-3.584-15.36z" fill="#ffffff" p-id="3541"></path><path d="M505.344 792.576m-66.56 0a66.56 66.56 0 1 0 133.12 0 66.56 66.56 0 1 0-133.12 0Z" fill="#ffffff" p-id="3542"></path></svg>