<?xml version="1.0" standalone="no"?><!DOCTYPE svg PUBLIC "-//W3C//DTD SVG 1.1//EN" "http://www.w3.org/Graphics/SVG/1.1/DTD/svg11.dtd"><svg t="1533518066986" class="icon" style="" viewBox="0 0 1024 1024" version="1.1" xmlns="http://www.w3.org/2000/svg" p-id="8728" xmlns:xlink="http://www.w3.org/1999/xlink" width="128" height="128"><defs><style type="text/css"></style></defs><path d="M510.7712 770.2528c-17.408 0-31.5392-14.1312-31.5392-31.5392v-198.8608h-198.8608c-17.408 0-31.5392-14.1312-31.5392-31.5392s14.1312-31.5392 31.5392-31.5392H479.232v-198.8608c0-17.408 14.1312-31.5392 31.5392-31.5392s31.5392 14.1312 31.5392 31.5392v198.8608h198.8608c17.408 0 31.5392 14.1312 31.5392 31.5392s-14.1312 31.5392-31.5392 31.5392h-198.8608v198.8608c0 17.2032-14.1312 31.5392-31.5392 31.5392z" fill="#707070" p-id="8729"></path><path d="M510.7712 968.9088c-122.2656 0-237.3632-47.7184-323.7888-134.144s-134.144-201.5232-134.144-323.7888S100.5568 273.6128 186.9824 186.9824s201.5232-134.144 323.7888-134.144 237.3632 47.7184 323.7888 134.144S968.704 388.5056 968.704 510.976s-47.7184 237.3632-134.144 323.7888-201.5232 134.144-323.7888 134.144z m0-854.4256c-218.7264 0-396.4928 177.7664-396.4928 396.4928s177.7664 396.4928 396.4928 396.4928S907.264 729.4976 907.264 510.976 729.4976 114.4832 510.7712 114.4832z" fill="#707070" p-id="8730"></path></svg>