<?xml version="1.0" standalone="no"?><!DOCTYPE svg PUBLIC "-//W3C//DTD SVG 1.1//EN" "http://www.w3.org/Graphics/SVG/1.1/DTD/svg11.dtd"><svg t="1533530370821" class="icon" style="" viewBox="0 0 1024 1024" version="1.1" xmlns="http://www.w3.org/2000/svg" p-id="2893" xmlns:xlink="http://www.w3.org/1999/xlink" width="128" height="128"><defs><style type="text/css"></style></defs><path d="M512 32C248 32 32 248 32 512s216 480 480 480 480-216 480-480S776 32 512 32z" fill="#FAFBFB" p-id="2894" data-spm-anchor-id="a313x.7781069.0.i10" class=""></path><path d="M512 0C228.8 0 0 228.8 0 512s228.8 512 512 512 512-228.8 512-512S795.2 0 512 0z m0 992C248 992 32 776 32 512S248 32 512 32s480 216 480 480-216 480-480 480z" fill="#707070" p-id="2895" data-spm-anchor-id="a313x.7781069.0.i6" class=""></path><path d="M512 512m-392 0a392 392 0 1 0 784 0 392 392 0 1 0-784 0Z" fill="#FAFBFB" p-id="2896" data-spm-anchor-id="a313x.7781069.0.i9" class=""></path><path d="M784 496H528V240h-32v256H240v32h256v256h32V528h256z" fill="#707070" p-id="2897" data-spm-anchor-id="a313x.7781069.0.i8" class=""></path></svg>