<?xml version="1.0" standalone="no"?><!DOCTYPE svg PUBLIC "-//W3C//DTD SVG 1.1//EN" "http://www.w3.org/Graphics/SVG/1.1/DTD/svg11.dtd"><svg t="1533298778408" class="icon" style="" viewBox="0 0 1024 1024" version="1.1" xmlns="http://www.w3.org/2000/svg" p-id="9180" xmlns:xlink="http://www.w3.org/1999/xlink" width="128" height="128"><defs><style type="text/css"></style></defs><path d="M512 365.025882c-112.037647 0-202.390588 90.352941-202.390588 202.390589s90.352941 202.390588 202.390588 202.390588 202.390588-90.352941 202.390588-202.390588c-1.204706-112.037647-91.557647-202.390588-202.390588-202.390589z m0 354.18353c-83.124706 0-151.792941-67.463529-151.792941-151.792941s67.463529-151.792941 151.792941-151.792942c83.124706 0 151.792941 67.463529 151.792941 151.792942s-68.668235 151.792941-151.792941 151.792941z" fill="#ffffff" p-id="9181"></path><path d="M864.978824 265.035294h-80.715295l-27.708235-84.329412c-13.251765-40.96-51.802353-69.872941-96.37647-69.872941H361.411765c-43.369412 0-81.92 27.708235-96.376471 69.872941l-26.503529 84.329412h-80.715294c-55.416471 0-101.195294 45.778824-101.195295 101.195294v454.174118c0 55.416471 45.778824 101.195294 101.195295 101.195294h707.162353c55.416471 0 101.195294-45.778824 101.195294-101.195294V365.025882c0-55.416471-45.778824-99.990588-101.195294-99.990588zM915.576471 820.404706c0 27.708235-22.889412 50.597647-50.597647 50.597647H157.816471c-27.708235 0-50.597647-22.889412-50.597647-50.597647V365.025882c0-27.708235 22.889412-50.597647 50.597647-50.597647h80.715294c21.684706 0 40.96-14.456471 48.188235-34.93647l27.708235-83.124706c7.228235-20.48 26.503529-34.936471 48.188236-34.936471h298.767058c21.684706 0 40.96 14.456471 48.188236 34.936471l27.708235 83.124706c7.228235 20.48 26.503529 34.936471 48.188235 34.93647h80.715294c27.708235 0 50.597647 22.889412 50.597647 50.597647v455.378824z" fill="#ffffff" p-id="9182"></path></svg>