<?xml version="1.0" standalone="no"?><!DOCTYPE svg PUBLIC "-//W3C//DTD SVG 1.1//EN" "http://www.w3.org/Graphics/SVG/1.1/DTD/svg11.dtd"><svg t="1533275996270" class="icon" style="" viewBox="0 0 1024 1024" version="1.1" xmlns="http://www.w3.org/2000/svg" p-id="54766" xmlns:xlink="http://www.w3.org/1999/xlink" width="128" height="128"><defs><style type="text/css"></style></defs><path d="M512 820.4c-170.1 0-308.4-138.3-308.4-308.4 0-170 138.3-308.4 308.4-308.4S820.4 342 820.4 512c0 170.1-138.4 308.4-308.4 308.4z m0-564.8c-141.4 0-256.4 115-256.4 256.4 0 141.4 115 256.4 256.4 256.4s256.4-115 256.4-256.4c0-141.4-115-256.4-256.4-256.4z" fill="#10ADFE" p-id="54767"></path><path d="M563.1 257.3h-98.7c-25.6 0-41.9-29.4-36.7-61.6l15.4-96c3.1-19.6 19.7-34.3 37.2-34.3h67c17.4 0 34 14.8 37.2 34.3l15.4 96c5.1 32.2-11.2 61.6-36.8 61.6zM368 295.7l-69.8 69.8c-18.1 18.1-50.4 8.9-69.5-17.6l-57-78.8c-11.6-16.1-10.3-38.2 2-50.5l47.4-47.4c12.3-12.3 34.5-13.6 50.5-2l78.8 57c26.5 19.1 35.7 51.4 17.6 69.5zM257.3 460.9v98.7c0 25.6-29.4 41.9-61.6 36.7l-96-15.4c-19.6-3.1-34.3-19.7-34.3-37.2v-67c0-17.4 14.8-34 34.3-37.2l96-15.4c32.2-5.1 61.6 11.2 61.6 36.8zM295.7 656l69.8 69.8c18.1 18.1 8.9 50.4-17.6 69.5l-78.8 57c-16.1 11.6-38.2 10.3-50.5-2l-47.4-47.4c-12.3-12.3-13.6-34.5-2-50.5l57-78.8c19.1-26.5 51.4-35.7 69.5-17.6zM460.9 766.7h98.7c25.6 0 41.9 29.4 36.7 61.6l-15.4 96c-3.1 19.6-19.7 34.3-37.2 34.3h-67c-17.4 0-34-14.8-37.2-34.3l-15.4-96c-5.1-32.2 11.2-61.6 36.8-61.6zM656 728.3l69.8-69.8c18.1-18.1 50.4-8.9 69.5 17.6l57 78.8c11.6 16.1 10.3 38.2-2 50.5l-47.4 47.4c-12.3 12.3-34.5 13.6-50.5 2l-78.8-57c-26.5-19.1-35.7-51.4-17.6-69.5zM766.7 563.1v-98.7c0-25.6 29.4-41.9 61.6-36.7l96 15.4c19.6 3.1 34.3 19.7 34.3 37.2v67c0 17.4-14.8 34-34.3 37.2l-96 15.4c-32.2 5.1-61.6-11.2-61.6-36.8zM728.3 368l-69.8-69.8c-18.1-18.1-8.9-50.4 17.6-69.5l78.8-57c16.1-11.6 38.2-10.3 50.5 2l47.4 47.4c12.3 12.3 13.6 34.5 2 50.5l-57 78.8c-19.1 26.5-51.4 35.7-69.5 17.6z" fill="#10ADFE" p-id="54768"></path></svg>