<?xml version="1.0" standalone="no"?><!DOCTYPE svg PUBLIC "-//W3C//DTD SVG 1.1//EN" "http://www.w3.org/Graphics/SVG/1.1/DTD/svg11.dtd"><svg t="1533345477037" class="icon" style="" viewBox="0 0 1076 1024" version="1.1" xmlns="http://www.w3.org/2000/svg" p-id="28623" xmlns:xlink="http://www.w3.org/1999/xlink" width="134.5" height="128"><defs><style type="text/css"></style></defs><path d="M1005.19384625 774.21948739h-504.61538437c-21.63692344 0-36.06153844-14.424615-36.06153844-36.06153844 0-21.6123075 14.424615-36.03692344 36.06153844-36.03692343H969.10769188V125.45641021H68.03692344C46.424615 125.4317952 32 111.00717927 32 89.37025677 32 67.75794833 46.424615 53.33333333 68.03692344 53.33333333h937.15692281C1026.80615375 53.33333333 1041.23076969 67.75794833 1041.23076969 89.37025677v648.78769219c0 21.63692344-14.424615 36.06153844-36.03692344 36.06153843z" fill="#ffffff" p-id="28624"></path><path d="M212.20923031 774.21948739H68.03692344C46.424615 774.21948739 32 759.79487146 32 738.13333302v-504.61538438c0-21.6123075 14.424615-36.03692344 36.03692344-36.03692343 21.63692344 0 36.06153844 14.424615 36.06153843 36.03692343v468.57846188H212.18461531c21.63692344 0 36.06153844 14.424615 36.06153844 36.0369225 0 21.63692344-14.424615 36.06153844-36.06153844 36.06153844z" fill="#ffffff" p-id="28625"></path><path d="M212.20923031 990.46564114c-7.1876925 0-10.80615375 0-14.4-3.59384625-10.83076969-7.2123075-21.63692344-18.01846125-21.6369225-32.44307718v-216.27076875c0-21.6123075 14.424615-36.03692344 36.0369225-36.03692344 21.63692344 0 36.06153844 14.424615 36.06153938 36.03692344v144.19692281l230.67076875-173.02153875c14.424615-10.83076969 39.63076969-7.2123075 50.46153844 7.21230844 10.83076969 14.424615 7.2123075 39.63076969-7.2123075 50.46153843L233.84615375 983.27794864c-7.2123075 3.59384625-14.424615 7.1876925-21.63692344 7.1876925z" fill="#ffffff" p-id="28626"></path></svg>