<?xml version="1.0" standalone="no"?><!DOCTYPE svg PUBLIC "-//W3C//DTD SVG 1.1//EN" "http://www.w3.org/Graphics/SVG/1.1/DTD/svg11.dtd"><svg t="1533517989407" class="icon" style="" viewBox="0 0 1024 1024" version="1.1" xmlns="http://www.w3.org/2000/svg" p-id="6864" xmlns:xlink="http://www.w3.org/1999/xlink" width="128" height="128"><defs><style type="text/css"></style></defs><path d="M510.098286 18.285714C238.902857 18.285714 18.285714 238.902857 18.285714 510.098286c0 271.195429 220.617143 491.812571 491.812572 491.812571 271.195429 0 491.812571-220.617143 491.812571-491.812571C1001.910857 238.902857 781.293714 18.285714 510.098286 18.285714m0 1001.910857C228.827429 1020.196571 0 791.369143 0 510.098286 0 228.845714 228.827429 0 510.098286 0c281.270857 0 510.098286 228.845714 510.098285 510.098286 0 281.270857-228.827429 510.098286-510.098285 510.098285" fill="#707070" p-id="6865"></path><path d="M577.590857 213.723429l-60.763428 52.315428a342.875429 342.875429 0 0 1 101.083428 244.059429 342.857143 342.857143 0 0 1-101.083428 244.041143l-3.108572 3.108571 54.363429 58.715429 3.364571-3.328c81.554286-80.493714 126.464-187.958857 126.464-302.537143a422.948571 422.948571 0 0 0-120.32-296.374857" fill="#707070" p-id="6866"></path><path d="M420.571429 365.714286c30.592 35.236571 48.329143 91.428571 48.329142 144.073143 0 55.643429-23.716571 112.822857-57.472 148.498285l54.180572 54.546286c48.749714-50.980571 79.158857-123.117714 79.158857-203.044571 0-76.416-27.757714-145.645714-72.777143-196.132572L420.571429 365.714286zM272.768 510.098286l83.803429 90.112a122.770286 122.770286 0 0 0 39.241142-90.112c0-33.974857-13.769143-64.731429-36.022857-87.003429l-87.021714 87.003429z" fill="#707070" p-id="6867"></path></svg>