<?xml version="1.0" standalone="no"?><!DOCTYPE svg PUBLIC "-//W3C//DTD SVG 1.1//EN" "http://www.w3.org/Graphics/SVG/1.1/DTD/svg11.dtd"><svg t="1533516444156" class="icon" style="" viewBox="0 0 1024 1024" version="1.1" xmlns="http://www.w3.org/2000/svg" p-id="5066" data-spm-anchor-id="a313x.7781069.0.i3" xmlns:xlink="http://www.w3.org/1999/xlink" width="128" height="128"><defs><style type="text/css"></style></defs><path d="M512 742.4H266.24c-17.92 0-23.04-10.24-10.24-25.6 0 0 87.04-84.48 87.04-250.88C345.6 378.88 368.64 268.8 512 268.8s166.4 110.08 168.96 197.12C680.96 634.88 768 716.8 768 716.8c12.8 15.36 7.68 25.6-10.24 25.6H512z" fill="#8a8a8a" p-id="5067" data-spm-anchor-id="a313x.7781069.0.i1" class="selected"></path><path d="M757.76 768H266.24c-25.6 0-35.84-15.36-40.96-20.48-2.56-7.68-7.68-23.04 7.68-46.08l2.56-2.56s79.36-79.36 79.36-232.96C317.44 281.6 422.4 243.2 509.44 240.64c87.04 0 192 38.4 194.56 222.72 0 153.6 79.36 232.96 79.36 232.96l2.56 2.56c17.92 20.48 12.8 38.4 7.68 46.08 0 7.68-10.24 23.04-35.84 23.04z m-468.48-51.2h445.44c-28.16-35.84-79.36-117.76-79.36-250.88C652.8 345.6 609.28 294.4 512 294.4s-140.8 53.76-143.36 174.08c0 128-51.2 212.48-79.36 248.32z" fill="#8a8a8a" p-id="5068" data-spm-anchor-id="a313x.7781069.0.i2" class="selected"></path><path d="M512 204.8c10.24 0 20.48 10.24 20.48 20.48v20.48c0 10.24-10.24 20.48-20.48 20.48s-20.48-10.24-20.48-20.48v-20.48c0-10.24 10.24-20.48 20.48-20.48z m61.44 578.56c0 33.28-28.16 61.44-61.44 61.44s-61.44-28.16-61.44-61.44h122.88z" fill="#8a8a8a" p-id="5069" data-spm-anchor-id="a313x.7781069.0.i5" class="selected"></path><path d="M719.36 875.52c-15.36 0-30.72-7.68-40.96-20.48l-399.36-563.2c-15.36-23.04-10.24-53.76 12.8-71.68 23.04-15.36 53.76-10.24 71.68 12.8l399.36 563.2c15.36 23.04 10.24 53.76-12.8 71.68-10.24 5.12-20.48 7.68-30.72 7.68z" fill="#FFFFFF" p-id="5070"></path><path d="M719.36 844.8c-5.12 0-12.8-2.56-15.36-7.68l-399.36-563.2c-5.12-7.68-5.12-20.48 5.12-25.6 7.68-5.12 20.48-5.12 25.6 5.12l399.36 563.2c5.12 7.68 5.12 20.48-5.12 25.6-2.56 0-5.12 2.56-10.24 2.56z" fill="#8a8a8a" p-id="5071" data-spm-anchor-id="a313x.7781069.0.i4" class="selected"></path></svg>