<?xml version="1.0" standalone="no"?><!DOCTYPE svg PUBLIC "-//W3C//DTD SVG 1.1//EN" "http://www.w3.org/Graphics/SVG/1.1/DTD/svg11.dtd"><svg t="1533369691124" class="icon" style="" viewBox="0 0 1092 1024" version="1.1" xmlns="http://www.w3.org/2000/svg" p-id="2291" data-spm-anchor-id="a313x.7781069.0.i5" xmlns:xlink="http://www.w3.org/1999/xlink" width="136.5" height="128"><defs><style type="text/css"></style></defs><path d="M368.64 204.8c-20.48-10.24-40.96-13.653333-64.853333-13.653333-85.333333 0-153.6 68.266667-153.6 153.6 0 30.72 10.24 58.026667 23.893333 85.333333 6.826667 6.826667 13.653333 13.653333 23.893333 13.653333 6.826667 0 10.24 0 13.653334-3.413333 13.653333-6.826667 17.066667-23.893333 6.826666-37.546667-6.826667-20.48-13.653333-40.96-13.653333-61.44 0-54.613333 44.373333-98.986667 98.986667-98.986666 13.653333 0 27.306667 3.413333 40.96 10.24 13.653333 6.826667 30.72 0 37.546666-13.653334 6.826667-13.653333 0-30.72-13.653333-34.133333" fill="#465c89" p-id="2292"></path><path d="M1085.44 290.133333c-13.653333-92.16-64.853333-163.84-150.186667-215.04-47.786667-30.72-102.4-44.373333-157.013333-44.373333-71.68 0-136.533333 27.306667-187.733333 71.68-17.066667 13.653333-30.72 30.72-44.373334 44.373333-44.373333-51.2-88.746667-85.333333-136.533333-102.4-88.746667-30.72-177.493333-17.066667-259.413333 34.133334C51.2 143.36 0 232.106667 3.413333 341.333333c0 64.853333 20.48 129.706667 64.853334 191.146667 47.786667 68.266667 105.813333 136.533333 184.32 215.04 51.2 54.613333 105.813333 105.813333 160.426666 157.013333l51.2 51.2 13.653334 13.653334 6.826666 6.826666c10.24 10.24 34.133333 23.893333 64.853334 23.893334 23.893333 0 47.786667-10.24 68.266666-30.72 88.746667-85.333333 184.32-177.493333 273.066667-276.48 47.786667-51.2 98.986667-112.64 143.36-177.493334 47.786667-71.68 64.853333-146.773333 51.2-225.28M989.866667 488.106667c-40.96 64.853333-92.16 119.466667-139.946667 170.666666-88.746667 98.986667-184.32 187.733333-273.066667 273.066667-10.24 10.24-20.48 17.066667-34.133333 17.066667s-23.893333-6.826667-27.306667-10.24l-3.413333-3.413334c-3.413333-3.413333-10.24-6.826667-13.653333-13.653333l-51.2-51.2-157.013334-157.013333c-78.506667-78.506667-133.12-143.36-177.493333-208.213334-37.546667-54.613333-54.613333-105.813333-54.613333-160.426666 0-92.16 37.546667-163.84 119.466666-215.04C221.866667 102.4 266.24 88.746667 310.613333 88.746667c27.306667 0 54.613333 3.413333 78.506667 13.653333 40.96 13.653333 78.506667 44.373333 116.053333 92.16 6.826667 0 20.48 13.653333 40.96 13.653333 10.24 0 23.893333-3.413333 37.546667-17.066666l3.413333-3.413334c13.653333-17.066667 27.306667-30.72 40.96-44.373333 40.96-37.546667 92.16-58.026667 150.186667-58.026667 44.373333 0 88.746667 13.653333 129.706667 37.546667 71.68 44.373333 112.64 98.986667 122.88 177.493333 13.653333 64.853333 0 126.293333-40.96 187.733334" fill="#465c89" p-id="2293"></path><path d="M368.64 204.8c-20.48-10.24-40.96-13.653333-64.853333-13.653333-85.333333 0-153.6 68.266667-153.6 153.6 0 30.72 10.24 61.44 27.306666 85.333333 3.413333 10.24 13.653333 13.653333 20.48 13.653333 6.826667 0 10.24 0 13.653334-3.413333 13.653333-6.826667 17.066667-23.893333 6.826666-37.546667-10.24-17.066667-17.066667-34.133333-17.066666-54.613333 0-54.613333 44.373333-98.986667 98.986666-98.986667 13.653333 0 27.306667 3.413333 40.96 10.24 13.653333 6.826667 30.72 0 37.546667-13.653333 10.24-20.48 3.413333-34.133333-10.24-40.96" fill="#ededed" p-id="2294" data-spm-anchor-id="a313x.7781069.0.i3" class=""></path></svg>